<svg width="18" height="18" viewBox="0 0 18 18" fill="none" xmlns="http://www.w3.org/2000/svg">
<g clip-path="url(#clip0_356_328)">
<path d="M16.408 6.70384L17.0093 2.74929C17.0293 2.61819 16.9963 2.48454 16.9177 2.37774C16.8391 2.27094 16.7213 2.19975 16.5902 2.17981L12.6356 1.57848C12.5378 1.56342 12.4376 1.57776 12.3479 1.61968C12.2582 1.6616 12.183 1.72921 12.1317 1.81394C12.0805 1.89868 12.0556 1.99672 12.0601 2.09563C12.0647 2.19455 12.0985 2.28989 12.1573 2.36956L13.5381 4.24445L0.272723 14.0072L0.866242 14.8136L14.1308 5.0497L15.5105 6.92543C15.5691 7.00525 15.6501 7.06588 15.7432 7.09962C15.8363 7.13337 15.9373 7.13871 16.0334 7.11498C16.1295 7.09124 16.2165 7.0395 16.2832 6.9663C16.3499 6.89311 16.3933 6.80176 16.408 6.70384Z" fill="black"/>
</g>
<defs>
<clipPath id="clip0_356_328">
<rect width="15" height="15" fill="white" transform="translate(17.0845 2.25498) rotate(98.6461)"/>
</clipPath>
</defs>
</svg>
