<svg width="20" height="19" viewBox="0 0 20 19" fill="none" xmlns="http://www.w3.org/2000/svg">
<path d="M16.5 0C16.31 0 12.44 0.0699997 10 5.15C7.56 0.0699997 3.69 0 3.5 0C1.57 0 0 1.57 0 3.5V7.5C0 9.91 1.36 12.1 3.42 13.22C3.11704 13.8297 2.97471 14.5066 3.00648 15.1867C3.03825 15.8667 3.24308 16.5274 3.60156 17.1062C3.96005 17.685 4.46033 18.1627 5.05503 18.4941C5.64974 18.8255 6.31919 18.9996 7 19C8.26 19 9.3 18.09 10 16.79C10.7 18.1 11.74 19 13 19C15.21 19 17 17.21 17 15C17 14.38 16.85 13.77 16.58 13.22C17.6111 12.6615 18.4729 11.8356 19.0746 10.8291C19.6764 9.82265 19.9961 8.67267 20 7.5V3.5C20 1.57 18.43 0 16.5 0ZM7 17C5.9 17 5 16.1 5 15C5 14.44 5.24 13.91 5.66 13.53C5.93 13.29 6.04 12.92 5.96 12.56C5.88 12.2 5.61 11.93 5.26 11.83C3.34 11.28 1.99 9.5 1.99 7.51V3.51C1.99 2.68 2.66 2.01 3.48 2.01C3.63 2.01 7.23 2.18 8.99 8.17V12.65C8.99 15.14 7.78 17.02 6.99 17.02L7 17ZM18 7.5C18 9.5 16.66 11.28 14.73 11.82C14.38 11.92 14.11 12.2 14.03 12.55C13.95 12.9 14.06 13.27 14.33 13.52C14.76 13.91 14.99 14.43 14.99 14.99C14.99 16.09 14.09 16.99 12.99 16.99C12.2 16.99 10.99 15.11 10.99 12.62V8.14C12.74 2.2 16.29 1.99 16.5 1.98C17.32 1.98 17.99 2.66 17.99 3.48V7.48L18 7.5Z" fill="white"/>
</svg>
