<svg width="30" height="30" viewBox="0 0 30 30" fill="none" xmlns="http://www.w3.org/2000/svg">
<path fill-rule="evenodd" clip-rule="evenodd" d="M0 2.25C0 1.65326 0.148158 1.08097 0.411881 0.659009C0.675604 0.237053 1.03329 0 1.40625 0H28.5938C28.9667 0 29.3244 0.237053 29.5881 0.659009C29.8518 1.08097 30 1.65326 30 2.25C30 2.84674 29.8518 3.41903 29.5881 3.84099C29.3244 4.26295 28.9667 4.5 28.5938 4.5H1.40625C1.03329 4.5 0.675604 4.26295 0.411881 3.84099C0.148158 3.41903 0 2.84674 0 2.25ZM0 15C0 14.4033 0.148158 13.831 0.411881 13.409C0.675604 12.9871 1.03329 12.75 1.40625 12.75H28.5938C28.9667 12.75 29.3244 12.9871 29.5881 13.409C29.8518 13.831 30 14.4033 30 15C30 15.5967 29.8518 16.169 29.5881 16.591C29.3244 17.0129 28.9667 17.25 28.5938 17.25H1.40625C1.03329 17.25 0.675604 17.0129 0.411881 16.591C0.148158 16.169 0 15.5967 0 15ZM1.40625 25.5C1.03329 25.5 0.675604 25.7371 0.411881 26.159C0.148158 26.581 0 27.1533 0 27.75C0 28.3467 0.148158 28.919 0.411881 29.341C0.675604 29.7629 1.03329 30 1.40625 30H28.5938C28.9667 30 29.3244 29.7629 29.5881 29.341C29.8518 28.919 30 28.3467 30 27.75C30 27.1533 29.8518 26.581 29.5881 26.159C29.3244 25.7371 28.9667 25.5 28.5938 25.5H1.40625Z" fill="black"/>
</svg>
