<svg width="30" height="30" viewBox="0 0 30 30" fill="none" xmlns="http://www.w3.org/2000/svg">
<path d="M14.9986 0C23.2843 0 30 5.69566 30 12.7235C30 19.7498 23.2843 25.4455 15 25.4455C14.1752 25.4439 13.3512 25.3868 12.5329 25.2745L6.23571 29.7561C5.52 30.168 5.26714 30.123 5.56143 29.1141L6.83571 23.3967C2.72143 21.1271 0 17.1942 0 12.7235C0 5.69722 6.71429 0 15 0M23.44 12.5292L25.54 10.3156C25.6612 10.1787 25.7288 9.99591 25.7286 9.80581C25.7284 9.61571 25.6603 9.43312 25.5389 9.2965C25.4174 9.15988 25.2519 9.0799 25.0773 9.0734C24.9027 9.0669 24.7326 9.1344 24.6029 9.26167L21.8486 12.1623V9.76532C21.8486 9.57073 21.7775 9.3841 21.6511 9.2465C21.5246 9.1089 21.3531 9.0316 21.1743 9.0316C20.9955 9.0316 20.8239 9.1089 20.6975 9.2465C20.571 9.3841 20.5 9.57073 20.5 9.76532V13.7402C20.4762 13.8537 20.4762 13.9717 20.5 14.0853V16.3222C20.5 16.5168 20.571 16.7034 20.6975 16.841C20.8239 16.9786 20.9955 17.0559 21.1743 17.0559C21.3531 17.0559 21.5246 16.9786 21.6511 16.841C21.7775 16.7034 21.8486 16.5168 21.8486 16.3222V14.2034L22.4586 13.5614L24.4986 16.7217C24.5495 16.8006 24.6142 16.8678 24.689 16.9195C24.7638 16.9712 24.8473 17.0063 24.9345 17.0229C25.0218 17.0395 25.1113 17.0372 25.1978 17.0162C25.2842 16.9952 25.3661 16.9559 25.4386 16.9004C25.5111 16.845 25.5728 16.7746 25.6203 16.6932C25.6678 16.6118 25.7001 16.521 25.7154 16.426C25.7307 16.3311 25.7286 16.2337 25.7093 16.1396C25.6899 16.0455 25.6538 15.9565 25.6029 15.8776L23.44 12.5292ZM19.2143 15.5201H17.1286V9.78864C17.1206 9.60009 17.0461 9.42214 16.9207 9.29178C16.7952 9.16142 16.6285 9.08868 16.455 9.08868C16.2815 9.08868 16.1148 9.16142 15.9893 9.29178C15.8639 9.42214 15.7894 9.60009 15.7814 9.78864V16.2538C15.7814 16.6579 16.0814 16.9875 16.4543 16.9875H19.2143C19.3931 16.9875 19.5646 16.9102 19.6911 16.7726C19.8175 16.635 19.8886 16.4484 19.8886 16.2538C19.8886 16.0592 19.8175 15.8726 19.6911 15.735C19.5646 15.5974 19.3931 15.5201 19.2143 15.5201ZM10.8471 13.8241L11.8414 11.169L12.7529 13.8225L10.8471 13.8241ZM14.4514 14.5811L14.4543 14.5563C14.4538 14.3715 14.389 14.1937 14.2729 14.0588L12.7786 9.70625C12.7159 9.49883 12.5966 9.31715 12.4366 9.18549C12.2765 9.05382 12.0833 8.97844 11.8829 8.96942C11.6811 8.96932 11.484 9.03563 11.3175 9.15965C11.151 9.28366 11.0229 9.45957 10.95 9.66428L8.57572 15.9988C8.50808 16.179 8.509 16.381 8.57825 16.5605C8.64751 16.7399 8.77943 16.882 8.945 16.9556C9.11057 17.0292 9.29623 17.0282 9.46113 16.9529C9.62602 16.8775 9.75666 16.734 9.82429 16.5538L10.2986 15.29H13.2557L13.6814 16.5336C13.7105 16.6265 13.7564 16.7122 13.8164 16.7855C13.8764 16.8588 13.9493 16.9183 14.0309 16.9603C14.1124 17.0024 14.2008 17.0263 14.291 17.0305C14.3811 17.0347 14.4711 17.0191 14.5557 16.9848C14.6402 16.9505 14.7175 16.898 14.7831 16.8306C14.8486 16.7631 14.9011 16.682 14.9373 16.5921C14.9736 16.5022 14.9929 16.4053 14.9941 16.3071C14.9953 16.209 14.9783 16.1115 14.9443 16.0206L14.4514 14.5811ZM9.70429 9.79641C9.70466 9.70007 9.68753 9.60461 9.65386 9.5155C9.6202 9.4264 9.57067 9.34542 9.50814 9.27723C9.4456 9.20903 9.37129 9.15497 9.28947 9.11815C9.20766 9.08133 9.11996 9.06248 9.03143 9.06269H4.39571C4.21688 9.06269 4.04538 9.13999 3.91892 9.27759C3.79247 9.41519 3.72143 9.60182 3.72143 9.79641C3.72143 9.99101 3.79247 10.1776 3.91892 10.3152C4.04538 10.4528 4.21688 10.5301 4.39571 10.5301H6.05286V16.3377C6.05286 16.5323 6.1239 16.7189 6.25035 16.8565C6.3768 16.9941 6.54831 17.0714 6.72714 17.0714C6.90597 17.0714 7.07748 16.9941 7.20394 16.8565C7.33039 16.7189 7.40143 16.5323 7.40143 16.3377V10.5301H9.03C9.11866 10.5305 9.20651 10.5118 9.28848 10.4751C9.37046 10.4384 9.44495 10.3844 9.50764 10.3161C9.57032 10.2479 9.61998 10.1669 9.65373 10.0777C9.68748 9.98847 9.70466 9.89288 9.70429 9.79641Z" fill="white"/>
</svg>
