<svg width="30" height="30" viewBox="0 0 30 30" fill="none" xmlns="http://www.w3.org/2000/svg">
<path d="M30 22.7222H25.4586L24.4823 30L21.3284 22.7222H9.375V18.5606H21.6595V5.49329H30V22.7222ZM20.625 0V17.2289H8.6722L5.51767 24.5092L4.54073 17.2289H0V0H20.625ZM7.28819 11.6145C7.28819 10.7706 6.49571 10.3482 6.03226 10.9448C5.56881 11.5414 5.89694 12.5616 6.55248 12.5616C6.95884 12.5616 7.28825 12.1376 7.28825 11.6145H7.28819ZM11.2286 11.6145C11.2242 10.7722 10.432 10.3558 9.97093 10.9534C9.50987 11.551 9.83858 12.568 10.4929 12.568C10.9011 12.568 11.2313 12.1401 11.2286 11.6145ZM15.169 11.6145C15.169 10.7706 14.3765 10.3482 13.9131 10.9448C13.4496 11.5414 13.7778 12.5616 14.4333 12.5616C14.8396 12.5616 15.169 12.1376 15.169 11.6145Z" fill="white"/>
</svg>
