<svg width="35" height="35" viewBox="0 0 35 35" fill="none" xmlns="http://www.w3.org/2000/svg">
<g clip-path="url(#clip0_171_548)">
<path d="M32 27.7222H27.4586L26.4823 35L23.3284 27.7222H11.375V23.5606H23.6595V10.4933H32V27.7222ZM22.625 5V22.2289H10.6722L7.51767 29.5092L6.54073 22.2289H2V5H22.625ZM9.28819 16.6145C9.28819 15.7706 8.49571 15.3482 8.03226 15.9448C7.56881 16.5414 7.89694 17.5616 8.55248 17.5616C8.95884 17.5616 9.28825 17.1376 9.28825 16.6145H9.28819ZM13.2286 16.6145C13.2242 15.7722 12.432 15.3558 11.9709 15.9534C11.5099 16.551 11.8386 17.568 12.4929 17.568C12.9011 17.568 13.2313 17.1401 13.2286 16.6145ZM17.169 16.6145C17.169 15.7706 16.3765 15.3482 15.9131 15.9448C15.4496 16.5414 15.7778 17.5616 16.4333 17.5616C16.8396 17.5616 17.169 17.1376 17.169 16.6145Z" fill="white"/>
</g>
<defs>
<clipPath id="clip0_171_548">
<rect width="35" height="35" fill="white"/>
</clipPath>
</defs>
</svg>
