<svg width="22" height="22" viewBox="0 0 22 22" fill="none" xmlns="http://www.w3.org/2000/svg">
<g clip-path="url(#clip0_356_330)">
<path d="M9.78834 16.2946L11.9417 16.0732C12.2295 16.0432 12.5026 15.9306 12.7278 15.749C12.9531 15.5674 13.1211 15.3245 13.2114 15.0496C13.3018 14.7746 13.3107 14.4795 13.237 14.1996C13.1634 13.9197 13.0104 13.6672 12.7964 13.4723L15.4183 13.2018C15.7082 13.1715 15.983 13.0575 16.2092 12.8736C16.4353 12.6897 16.603 12.4439 16.6917 12.1663C16.7804 11.8886 16.7863 11.5911 16.7086 11.3102C16.6309 11.0292 16.4731 10.777 16.2544 10.5843C16.6193 10.4875 16.9343 10.2566 17.1364 9.93777C17.3386 9.61894 17.4131 9.2356 17.3451 8.86425C17.2771 8.49289 17.0715 8.16085 16.7695 7.93437C16.4674 7.70789 16.0911 7.60364 15.7156 7.64242L15.0557 7.71067C15.2255 7.47629 15.3239 7.19779 15.339 6.90875C15.3541 6.61971 15.2853 6.33248 15.1408 6.08169C14.9963 5.83091 14.7823 5.62728 14.5247 5.49538C14.267 5.36347 13.9768 5.30891 13.6888 5.33829L8.71301 5.85002C8.02672 5.91866 7.36087 6.12281 6.75406 6.45066C6.14724 6.7785 5.61152 7.22351 5.17795 7.7599C4.88627 8.11793 4.64282 8.51267 4.45381 8.93401C4.07907 9.7751 3.93213 10.7 4.02774 11.6158C4.12336 12.5316 4.45816 13.4062 4.99854 14.1517C5.53893 14.8973 6.2659 15.4876 7.1065 15.8634C7.9471 16.2392 8.87177 16.3874 9.78771 16.293L9.78834 16.2946ZM6.25322 14.7581C5.52447 14.1654 4.98782 13.3699 4.71112 12.4722C4.43441 11.5746 4.43007 10.615 4.69865 9.71488C4.96723 8.81474 5.49667 8.01445 6.22003 7.41519C6.9434 6.81592 7.8282 6.44458 8.76258 6.34812L13.7384 5.83639C14.0004 5.81263 14.2612 5.89308 14.4643 6.0603C14.6674 6.22751 14.7964 6.46803 14.8234 6.72972C14.8504 6.99141 14.7732 7.2532 14.6085 7.45834C14.4438 7.66349 14.2049 7.79547 13.9435 7.82569L11.552 8.07127C11.4893 8.08182 11.433 8.11587 11.3945 8.16648C11.356 8.2171 11.3382 8.28048 11.3448 8.34373C11.3514 8.40697 11.3818 8.46533 11.4299 8.50692C11.4781 8.54851 11.5402 8.57021 11.6037 8.5676L15.7668 8.13989C15.8983 8.12469 16.0315 8.13574 16.1586 8.17241C16.2858 8.20907 16.4045 8.27062 16.5077 8.35348C16.6109 8.43634 16.6966 8.53887 16.7599 8.65512C16.8232 8.77137 16.8628 8.89903 16.8764 9.03069C16.8899 9.16235 16.8772 9.2954 16.839 9.42212C16.8008 9.54884 16.7378 9.6667 16.6536 9.76889C16.5695 9.87107 16.4659 9.95553 16.3489 10.0174C16.2319 10.0792 16.1038 10.1172 15.9719 10.1292L12.0955 10.5284C12.0629 10.5318 12.0312 10.5415 12.0023 10.5571C11.9734 10.5727 11.9479 10.5939 11.9272 10.6194C11.9064 10.6448 11.8909 10.6741 11.8816 10.7056C11.8722 10.7371 11.8691 10.7701 11.8724 10.8027C11.8758 10.8354 11.8855 10.8671 11.9012 10.896C11.9168 10.9249 11.9379 10.9504 11.9634 10.9711C11.9889 10.9918 12.0182 11.0073 12.0496 11.0167C12.0811 11.0261 12.1141 11.0292 12.1468 11.0259L15.1619 10.715C15.4258 10.6878 15.6896 10.7666 15.8954 10.934C16.1012 11.1013 16.2321 11.3436 16.2593 11.6075C16.2865 11.8713 16.2077 12.1352 16.0403 12.341C15.8729 12.5468 15.6307 12.6777 15.3668 12.7049L11.0144 13.1533C10.8148 12.516 10.39 11.9731 9.81951 11.626C9.24898 11.2789 8.57163 11.1512 7.91389 11.2669C7.88115 11.2722 7.84979 11.2839 7.82163 11.3014C7.79347 11.3189 7.76907 11.3418 7.74986 11.3688C7.73064 11.3959 7.717 11.4264 7.70971 11.4588C7.70243 11.4911 7.70165 11.5246 7.70743 11.5573C7.71321 11.5899 7.72542 11.6211 7.74336 11.649C7.7613 11.6769 7.78461 11.7009 7.81193 11.7197C7.83925 11.7385 7.87003 11.7516 7.90249 11.7584C7.93495 11.7652 7.96843 11.7655 8.00098 11.7592C8.57039 11.6588 9.15659 11.7815 9.63796 12.1018C10.1193 12.422 10.4589 12.9153 10.5863 13.4793C10.5997 13.539 10.6346 13.5916 10.6842 13.6273C10.7338 13.6631 10.7948 13.6794 10.8556 13.6731L11.6853 13.5864C11.8168 13.5712 11.95 13.5823 12.0772 13.619C12.2044 13.6556 12.323 13.7172 12.4262 13.8C12.5294 13.8829 12.6152 13.9854 12.6785 14.1017C12.7418 14.2179 12.7813 14.3456 12.7949 14.4772C12.8085 14.6089 12.7958 14.7419 12.7576 14.8687C12.7193 14.9954 12.6563 15.1132 12.5722 15.2154C12.4881 15.3176 12.3845 15.4021 12.2675 15.4639C12.1505 15.5258 12.0223 15.5638 11.8905 15.5757L9.73711 15.7971C9.11677 15.8628 8.48957 15.8048 7.89177 15.6265C7.29398 15.4482 6.73745 15.1532 6.25436 14.7586L6.25322 14.7581ZM14.4694 16.4322C14.5208 16.4739 14.5535 16.5342 14.5605 16.6C14.5676 16.6657 14.5482 16.7316 14.5068 16.7831C14.2178 17.1421 13.8603 17.44 13.4552 17.6597C13.0501 17.8793 12.6054 18.0162 12.1469 18.0625L12.1054 18.0665C12.0401 18.0728 11.975 18.0532 11.924 18.012C11.8731 17.9707 11.8404 17.9111 11.8329 17.846C11.8295 17.8133 11.8326 17.7802 11.8419 17.7487C11.8513 17.7172 11.8667 17.6879 11.8875 17.6624C11.9082 17.6368 11.9337 17.6156 11.9626 17.6C11.9915 17.5844 12.0232 17.5746 12.0559 17.5712L12.0968 17.5669C12.4893 17.5274 12.87 17.4101 13.2168 17.2221C13.5636 17.0341 13.8696 16.779 14.1169 16.4717C14.1374 16.4458 14.1628 16.4243 14.1916 16.4084C14.2204 16.3924 14.2522 16.3823 14.2849 16.3786C14.3177 16.3749 14.3508 16.3778 14.3825 16.387C14.4142 16.3962 14.4437 16.4116 14.4694 16.4322ZM5.77929 4.98465C5.76182 4.95117 5.75215 4.91417 5.75102 4.87643C5.74989 4.83868 5.75732 4.80117 5.77276 4.76671C5.79576 4.71562 5.83525 4.67373 5.8849 4.64777C6.70055 4.22125 7.59018 3.95453 8.50595 3.86192C8.53931 3.85704 8.57331 3.85896 8.60592 3.86755C8.63852 3.87615 8.66905 3.89126 8.69566 3.91196C8.72227 3.93266 8.74442 3.95853 8.76078 3.98801C8.77714 4.0175 8.78736 4.04999 8.79083 4.08353C8.79431 4.11706 8.79096 4.15096 8.781 4.18317C8.77103 4.21538 8.75466 4.24524 8.73285 4.27096C8.71105 4.29668 8.68427 4.31772 8.65412 4.33282C8.62397 4.34792 8.59108 4.35676 8.55743 4.35882C7.7047 4.44511 6.8763 4.69345 6.11674 5.0905C6.08764 5.10572 6.05582 5.11505 6.0231 5.11797C5.99039 5.12088 5.95742 5.11732 5.92608 5.10749C5.89475 5.09766 5.86565 5.08175 5.84047 5.06067C5.81528 5.0396 5.79449 5.01376 5.77929 4.98465Z" fill="black"/>
</g>
<defs>
<clipPath id="clip0_356_330">
<rect width="16" height="16" fill="white" transform="translate(21.1407 6.53711) rotate(114.115)"/>
</clipPath>
</defs>
</svg>
