<svg width="20" height="20" viewBox="0 0 20 20" fill="none" xmlns="http://www.w3.org/2000/svg">
<path d="M8.86697 0.532945C8.59907 0.1917 8.23577 0 7.85696 0C7.47815 0 7.11484 0.1917 6.84694 0.532945L0.418272 8.72407C0.150452 9.06542 0 9.52832 0 10.011C0 10.4937 0.150452 10.9566 0.418272 11.2979L6.84694 19.489C7.11638 19.8206 7.47724 20.0041 7.85182 19.9999C8.22639 19.9958 8.5847 19.8043 8.84957 19.4669C9.11444 19.1294 9.26469 18.6728 9.26794 18.1956C9.2712 17.7183 9.1272 17.2585 8.86697 16.9152L4.99977 11.8312H18.5714C18.9503 11.8312 19.3137 11.6395 19.5816 11.2981C19.8495 10.9567 20 10.4937 20 10.011C20 9.52823 19.8495 9.06524 19.5816 8.72388C19.3137 8.38251 18.9503 8.19074 18.5714 8.19074H4.99977L8.86697 3.10678C9.13479 2.76543 9.28524 2.30253 9.28524 1.81986C9.28524 1.3372 9.13479 0.874292 8.86697 0.532945Z" fill="black"/>
</svg>
