<svg width="20" height="20" viewBox="0 0 20 20" fill="none" xmlns="http://www.w3.org/2000/svg">
<path d="M11.133 0.532945C11.4009 0.1917 11.7642 0 12.143 0C12.5219 0 12.8852 0.1917 13.1531 0.532945L19.5817 8.72407C19.8495 9.06542 20 9.52832 20 10.011C20 10.4937 19.8495 10.9566 19.5817 11.2979L13.1531 19.489C12.8836 19.8206 12.5228 20.0041 12.1482 19.9999C11.7736 19.9958 11.4153 19.8043 11.1504 19.4669C10.8856 19.1294 10.7353 18.6728 10.7321 18.1956C10.7288 17.7183 10.8728 17.2585 11.133 16.9152L15.0002 11.8312H1.42859C1.04971 11.8312 0.686338 11.6395 0.418425 11.2981C0.150512 10.9567 0 10.4937 0 10.011C0 9.52823 0.150512 9.06524 0.418425 8.72388C0.686338 8.38251 1.04971 8.19074 1.42859 8.19074H15.0002L11.133 3.10678C10.8652 2.76543 10.7148 2.30253 10.7148 1.81986C10.7148 1.3372 10.8652 0.874292 11.133 0.532945Z" fill="black"/>
</svg>
